<svg xmlns="http://www.w3.org/2000/svg" width="225" height="225" viewBox="0 0 225 225">
<g>
<path d="M 0.00 0.00 L 225.00 0.00 L 225.00 225.00 L 0.00 225.00 ZM 106.00 188.31 C112.36,189.37 126.87,188.88 132.94,187.39 C140.65,185.50 153.84,179.57 160.67,174.92 C167.71,170.13 175.77,161.33 179.08,154.80 C185.97,141.25 190.97,114.21 189.09,100.71 C187.57,89.77 184.39,82.49 177.00,73.00 C174.22,69.43 170.18,64.20 168.04,61.39 C162.27,53.83 156.56,49.33 146.50,44.45 C129.55,36.22 112.99,33.96 98.57,37.92 C72.40,45.10 46.15,67.98 38.26,90.49 C32.18,107.83 37.35,136.67 49.80,154.90 C54.36,161.58 55.33,162.62 62.50,168.51 C70.06,174.72 96.38,186.70 106.00,188.31 ZM 124.50 180.64 C118.52,182.24 114.82,182.21 105.41,180.48 C80.70,175.96 64.99,163.60 51.71,138.25 C44.59,124.64 44.22,121.40 46.98,96.78 C48.32,84.80 49.61,81.04 55.45,72.19 C61.32,63.26 67.06,58.02 75.09,54.23 C97.42,43.67 117.11,43.42 141.59,53.40 C156.82,59.60 165.21,67.86 172.97,84.27 C177.00,92.79 178.01,96.13 179.03,104.23 C180.35,114.83 179.88,130.32 178.06,136.26 C176.52,141.24 169.03,152.21 162.64,158.82 C153.49,168.28 138.38,176.93 124.50,180.64 ZM 108.00 171.40 C113.34,172.38 127.92,171.00 133.17,169.02 C139.85,166.49 150.39,158.62 157.03,151.19 C163.18,144.31 170.15,130.79 171.96,122.24 C173.09,116.85 173.06,114.88 171.70,108.12 C169.36,96.46 164.61,85.09 159.04,77.86 C150.93,67.32 145.51,62.96 135.50,58.92 C130.00,56.70 128.16,56.50 113.50,56.54 C104.70,56.56 95.37,57.11 92.76,57.76 C82.67,60.27 69.52,68.67 62.01,77.42 C60.63,79.02 58.05,83.75 56.29,87.92 C53.63,94.19 53.07,96.80 53.07,103.00 C53.06,113.00 55.40,129.54 57.52,134.50 C59.86,139.97 67.84,149.79 74.93,155.94 C85.64,165.22 92.95,168.63 108.00,171.40 ZM 113.19 105.50 L 111.41 114.50 L 97.11 115.09 L 96.44 111.54 C96.08,109.59 95.56,108.00 95.30,108.00 C95.03,108.00 93.67,108.90 92.27,110.00 C90.87,111.10 88.22,112.00 86.37,112.00 C79.85,112.00 76.96,105.87 81.03,100.69 L 83.05 98.12 L 79.53 98.69 C74.87,99.45 74.49,96.55 79.12,95.62 C84.00,94.65 91.00,94.89 91.00,96.03 C91.00,96.60 89.43,98.44 87.50,100.13 C82.34,104.66 83.03,110.05 88.50,107.98 C89.60,107.56 91.53,106.11 92.79,104.75 C94.85,102.53 94.98,101.86 94.06,97.90 C93.50,95.48 93.04,92.49 93.02,91.25 L 93.00 89.00 L 118.00 89.00 C139.56,89.00 143.00,89.21 143.00,90.50 C143.00,91.51 141.99,92.00 139.91,92.00 L 136.81 92.00 L 137.16 101.92 C137.35,107.37 137.83,112.16 138.23,112.56 C138.63,112.96 139.63,112.72 140.46,112.03 C141.29,111.34 142.71,111.06 143.60,111.40 C144.92,111.91 144.99,112.31 143.99,113.51 C142.39,115.44 136.57,115.43 134.64,113.50 C133.49,112.35 132.53,112.23 130.50,113.00 C126.84,114.39 124.34,114.25 120.54,112.45 C117.49,111.01 114.98,107.48 115.02,104.70 C115.05,102.24 116.90,100.70 120.54,100.11 C122.60,99.77 124.76,98.74 125.35,97.81 C126.95,95.27 123.57,92.00 119.36,92.00 C119.15,92.00 118.95,92.00 118.76,91.99 C117.96,91.98 117.39,91.97 116.92,92.20 C115.58,92.85 115.18,95.44 113.19,105.50 ZM 89.07 143.16 C86.02,146.22 84.49,147.00 81.57,147.00 C78.28,147.00 77.74,146.61 76.34,143.28 C72.36,133.75 79.96,115.00 87.79,115.00 C92.21,115.00 93.08,118.88 90.92,128.95 C90.05,133.00 89.43,134.00 87.81,134.00 C86.29,134.00 85.96,133.57 86.48,132.25 C88.01,128.38 89.30,120.23 88.65,118.53 C87.99,116.81 87.87,116.81 86.02,118.48 C83.03,121.19 79.84,131.97 80.19,138.17 C80.46,142.86 80.78,143.54 82.80,143.83 C85.57,144.22 90.86,138.85 93.53,132.94 C94.50,130.77 95.91,129.00 96.65,129.00 C98.29,129.00 98.36,130.67 96.88,134.90 C94.82,140.83 96.73,139.14 99.27,132.79 C100.66,129.33 102.40,126.50 103.14,126.50 C104.61,126.50 104.64,127.14 103.60,134.00 C102.98,138.01 103.06,138.31 104.34,136.71 C105.13,135.73 106.52,131.95 107.44,128.31 C109.94,118.33 111.57,115.00 113.95,115.00 C116.26,115.00 116.57,116.03 114.80,117.80 C113.87,118.73 114.07,119.00 115.73,119.00 C116.99,119.00 118.13,118.18 118.50,117.00 C119.24,114.65 121.81,114.34 122.64,116.50 C122.95,117.32 124.07,118.00 125.11,118.00 C126.15,118.00 127.00,118.57 127.00,119.26 C127.00,120.01 125.71,120.52 123.79,120.51 C120.91,120.50 120.40,120.96 118.85,125.00 C116.80,130.30 116.47,139.06 118.25,140.88 C119.26,141.92 119.02,142.11 117.01,141.83 C115.15,141.59 114.38,140.76 114.01,138.59 L 113.50 135.69 L 112.08 138.34 C110.68,140.97 107.67,141.89 106.53,140.04 C106.20,139.52 105.27,139.34 104.46,139.66 C103.64,139.97 102.34,139.69 101.56,139.05 C100.43,138.11 99.91,138.29 99.03,139.94 C97.80,142.25 94.21,142.71 93.42,140.66 C93.07,139.74 91.72,140.51 89.07,143.16 ZM 143.20 136.58 C143.63,140.28 142.18,141.12 139.97,138.46 C138.93,137.22 138.94,135.63 139.99,130.06 C140.70,126.28 141.01,122.47 140.67,121.59 C139.69,119.03 138.00,119.76 137.99,122.75 C137.99,127.16 136.15,132.56 133.99,134.51 C132.28,136.05 131.60,136.14 129.29,135.08 C127.01,134.05 126.40,134.10 125.43,135.43 C124.80,136.29 123.32,137.00 122.14,137.00 C120.32,137.00 120.01,136.45 120.10,133.25 C120.25,127.63 121.38,124.55 123.43,124.16 C124.95,123.86 125.16,124.25 124.63,126.40 C124.28,127.83 123.73,130.24 123.41,131.75 L 122.82 134.50 L 124.90 131.50 C126.05,129.85 127.27,127.00 127.62,125.17 C128.19,122.15 130.35,120.01 131.58,121.24 C131.85,121.51 131.67,123.49 131.19,125.64 C130.71,127.79 130.63,130.43 131.01,131.52 C131.63,133.31 131.84,133.21 133.23,130.49 C135.65,125.75 136.27,121.41 134.85,119.13 C132.94,116.07 134.50,115.47 139.05,117.52 C144.45,119.96 145.26,121.70 143.90,128.02 C143.30,130.85 142.98,134.70 143.20,136.58 ZM 151.95 133.03 C149.43,134.38 148.40,134.25 146.52,132.38 C142.89,128.74 148.84,115.85 153.36,117.58 C156.56,118.81 155.13,125.62 151.36,127.05 C149.93,127.60 149.00,128.76 149.00,130.01 C149.00,133.02 152.10,131.09 154.53,126.57 C156.37,123.16 158.00,121.93 158.00,123.94 C158.00,125.71 153.78,132.05 151.95,133.03 ZM 122.63 108.93 C126.06,111.62 126.60,111.56 130.08,108.08 C132.72,105.44 133.00,104.51 133.00,98.58 C133.00,92.74 132.78,92.00 131.06,92.00 C129.41,92.00 129.21,92.51 129.70,95.52 C130.40,99.88 128.31,102.53 123.43,103.45 C119.31,104.22 119.04,106.10 122.63,108.93 ZM 97.04 97.07 C97.90,98.69 99.17,99.00 104.92,99.00 C111.18,99.00 111.82,98.81 112.37,96.75 C113.61,92.12 113.42,92.00 104.50,92.00 C95.45,92.00 94.62,92.56 97.04,97.07 ZM 104.33 83.92 C105.02,87.33 104.79,87.65 103.13,85.65 C101.12,83.24 100.85,78.58 102.45,74.09 C103.87,70.12 103.87,69.45 102.49,67.34 C101.11,65.23 101.11,65.00 102.50,65.00 C105.38,65.00 106.45,69.45 105.02,75.42 C104.30,78.40 104.00,82.23 104.33,83.92 ZM 109.00 137.45 C109.00,137.75 109.40,138.00 109.88,138.00 C110.69,138.00 116.00,125.01 116.00,123.04 C116.00,122.57 115.13,122.42 114.06,122.70 C112.59,123.08 111.73,124.88 110.56,130.05 C109.70,133.81 109.00,137.14 109.00,137.45 ZM 102.64 108.36 C103.23,112.67 104.22,114.08 105.35,112.24 C105.61,111.82 105.96,109.00 106.12,105.99 C106.39,100.98 106.22,100.47 104.21,100.18 C101.74,99.82 101.58,100.66 102.64,108.36 ZM 98.61 110.25 C98.93,111.82 99.82,113.00 100.70,113.00 C101.80,113.00 102.06,112.37 101.63,110.75 C101.30,109.51 101.02,106.59 101.01,104.25 C101.00,100.60 100.70,100.00 98.89,100.00 C96.67,100.00 96.66,100.38 98.61,110.25 ZM 107.01 108.83 C107.00,111.86 107.38,113.04 108.25,112.75 C110.70,111.94 111.98,100.00 109.62,100.00 C107.93,100.00 107.03,103.06 107.01,108.83 ZM 107.59 83.38 C107.89,84.16 107.69,85.07 107.14,85.41 C105.30,86.55 104.88,82.13 106.53,78.93 C107.44,77.19 107.93,74.85 107.64,73.72 C107.14,71.82 107.22,71.79 108.75,73.32 C110.27,74.84 110.27,75.21 108.72,78.46 C107.80,80.39 107.29,82.60 107.59,83.38 ZM 111.68 81.54 C111.87,82.11 111.11,82.57 110.00,82.57 C108.89,82.57 108.13,82.11 108.32,81.54 C108.51,80.97 109.27,80.50 110.00,80.50 C110.73,80.50 111.49,80.97 111.68,81.54 Z" fill="rgb(77,34,15)"/>
<path d="M 106.00 188.31 C96.38,186.70 70.06,174.72 62.50,168.51 C55.33,162.62 54.36,161.58 49.80,154.90 C37.35,136.67 32.18,107.83 38.26,90.49 C46.15,67.98 72.40,45.10 98.57,37.92 C112.99,33.96 129.55,36.22 146.50,44.45 C156.56,49.33 162.27,53.83 168.04,61.39 C170.18,64.20 174.22,69.43 177.00,73.00 C184.39,82.49 187.57,89.77 189.09,100.71 C190.97,114.21 185.97,141.25 179.08,154.80 C175.77,161.33 167.71,170.13 160.67,174.92 C153.84,179.57 140.65,185.50 132.94,187.39 C126.87,188.88 112.36,189.37 106.00,188.31 ZM 124.50 180.64 C138.38,176.93 153.49,168.28 162.64,158.82 C169.03,152.21 176.52,141.24 178.06,136.26 C179.88,130.32 180.35,114.83 179.03,104.23 C178.01,96.13 177.00,92.79 172.97,84.27 C165.21,67.86 156.82,59.60 141.59,53.40 C117.11,43.42 97.42,43.67 75.09,54.23 C67.06,58.02 61.32,63.26 55.45,72.19 C49.61,81.04 48.32,84.80 46.98,96.78 C44.22,121.40 44.59,124.64 51.71,138.25 C64.99,163.60 80.70,175.96 105.41,180.48 C114.82,182.21 118.52,182.24 124.50,180.64 ZM 107.59 83.38 C107.46,83.03 107.49,82.37 107.65,81.58 C107.79,81.55 108.04,81.38 108.39,81.09 C109.23,80.40 110.38,80.12 110.96,80.47 C112.45,81.40 112.23,82.79 110.84,82.47 C111.46,82.30 111.81,81.94 111.68,81.54 C111.49,80.97 110.73,80.50 110.00,80.50 C109.27,80.50 108.51,80.97 108.32,81.54 C108.17,81.98 108.60,82.36 109.33,82.51 C109.10,82.82 109.00,83.40 109.00,84.28 C109.00,86.98 106.59,88.15 104.52,86.88 C104.76,86.80 104.74,86.14 104.51,84.83 C104.66,85.27 104.86,85.67 105.10,86.00 C105.92,87.15 106.02,86.86 105.56,84.74 C105.24,83.30 105.49,81.39 106.19,79.68 C104.95,82.77 105.44,86.47 107.14,85.41 C107.69,85.07 107.89,84.16 107.59,83.38 ZM 105.20 67.36 C105.85,69.10 105.93,71.62 105.26,74.30 C105.81,71.45 105.76,69.02 105.20,67.36 ZM 101.42 80.39 C101.32,78.45 101.66,76.31 102.45,74.09 C101.69,76.24 101.35,78.43 101.42,80.39 Z" fill="rgb(164,100,49)"/>
<path d="M 113.19 105.50 C115.18,95.44 115.58,92.85 116.92,92.20 C117.39,91.97 117.96,91.98 118.76,91.99 C118.95,92.00 119.15,92.00 119.36,92.00 C123.57,92.00 126.95,95.27 125.35,97.81 C124.76,98.74 122.60,99.77 120.54,100.11 C116.90,100.70 115.05,102.24 115.02,104.70 C114.98,107.48 117.49,111.01 120.54,112.45 C124.34,114.25 126.84,114.39 130.50,113.00 C132.53,112.23 133.49,112.35 134.64,113.50 C136.57,115.43 142.39,115.44 143.99,113.51 C144.09,113.39 144.17,113.29 144.25,113.18 C144.27,113.62 144.24,114.15 144.17,114.80 C143.90,117.48 144.19,118.00 145.94,118.00 C147.09,118.00 148.86,117.48 149.88,116.84 C153.28,114.72 156.75,118.29 157.36,123.00 C156.72,123.19 155.66,124.47 154.53,126.57 C152.10,131.09 149.00,133.02 149.00,130.01 C149.00,128.76 149.93,127.60 151.36,127.05 C155.13,125.62 156.56,118.81 153.36,117.58 C148.84,115.85 142.89,128.74 146.52,132.38 C148.40,134.25 149.43,134.38 151.95,133.03 C153.34,132.28 156.12,128.43 157.37,125.85 C157.29,126.51 157.15,127.18 156.94,127.84 C154.87,134.37 153.33,136.00 149.23,136.02 C145.92,136.03 143.67,136.77 143.27,137.85 C143.28,137.48 143.25,137.05 143.20,136.58 C142.98,134.70 143.30,130.85 143.90,128.02 C145.26,121.70 144.45,119.96 139.05,117.52 C134.50,115.47 132.94,116.07 134.85,119.13 C136.27,121.41 135.65,125.75 133.23,130.49 C131.84,133.21 131.63,133.31 131.01,131.52 C130.63,130.43 130.71,127.79 131.19,125.64 C131.67,123.49 131.85,121.51 131.58,121.24 C130.35,120.01 128.19,122.15 127.62,125.17 C127.27,127.00 126.05,129.85 124.90,131.50 L 122.82 134.50 L 123.41 131.75 C123.73,130.24 124.28,127.83 124.63,126.40 C125.16,124.25 124.95,123.86 123.43,124.16 C121.38,124.55 120.25,127.63 120.10,133.25 C120.01,136.45 120.32,137.00 122.14,137.00 C123.32,137.00 124.80,136.29 125.43,135.43 C126.40,134.10 127.01,134.05 129.29,135.08 C131.60,136.14 132.28,136.05 133.99,134.51 C136.15,132.56 137.99,127.16 137.99,122.75 C138.00,119.76 139.69,119.03 140.67,121.59 C141.01,122.47 140.70,126.28 139.99,130.06 C138.94,135.63 138.93,137.22 139.97,138.46 C140.64,139.27 141.24,139.76 141.74,139.94 C140.77,139.78 139.66,139.30 139.05,138.56 C136.57,135.57 122.15,137.90 118.81,141.61 C118.75,141.44 118.56,141.20 118.25,140.88 C116.47,139.06 116.80,130.30 118.85,125.00 C120.40,120.96 120.91,120.50 123.79,120.51 C125.71,120.52 127.00,120.01 127.00,119.26 C127.00,118.57 126.15,118.00 125.11,118.00 C124.07,118.00 122.95,117.32 122.64,116.50 C121.81,114.34 119.24,114.65 118.50,117.00 C118.13,118.18 116.99,119.00 115.73,119.00 C114.07,119.00 113.87,118.73 114.80,117.80 C116.57,116.03 116.26,115.00 113.95,115.00 C111.57,115.00 109.94,118.33 107.44,128.31 C106.52,131.95 105.13,135.73 104.34,136.71 C103.06,138.31 102.98,138.01 103.60,134.00 C104.64,127.14 104.61,126.50 103.14,126.50 C102.40,126.50 100.66,129.33 99.27,132.79 C96.73,139.14 94.82,140.83 96.88,134.90 C98.36,130.67 98.29,129.00 96.65,129.00 C95.91,129.00 94.50,130.77 93.53,132.94 C90.86,138.85 85.57,144.22 82.80,143.83 C80.78,143.54 80.46,142.86 80.19,138.17 C79.84,131.97 83.03,121.19 86.02,118.48 C87.87,116.81 87.99,116.81 88.65,118.53 C89.30,120.23 88.01,128.38 86.48,132.25 C86.32,132.66 86.24,132.98 86.25,133.23 C85.84,131.94 85.16,130.89 84.30,130.56 C82.25,129.77 82.03,130.05 81.33,134.37 C80.96,136.61 81.22,138.56 81.99,139.49 C83.69,141.53 84.72,141.39 86.03,138.94 C86.80,137.51 86.83,135.36 86.35,133.58 C86.54,133.88 87.01,134.00 87.81,134.00 C89.43,134.00 90.05,133.00 90.92,128.95 C93.08,118.88 92.21,115.00 87.79,115.00 C81.82,115.00 75.98,125.90 75.31,135.30 C75.18,133.89 74.97,133.00 74.75,133.00 C74.34,133.00 74.00,131.24 74.00,129.09 C74.00,126.10 74.81,124.22 77.50,121.00 C80.91,116.91 82.01,112.74 80.00,111.50 C79.45,111.16 79.00,109.57 79.00,107.97 C79.00,106.36 78.14,103.63 77.08,101.89 C75.01,98.48 75.29,96.02 77.76,96.00 C74.63,97.15 75.39,99.36 79.53,98.69 L 83.05 98.12 L 81.03 100.69 C76.96,105.87 79.85,112.00 86.37,112.00 C88.22,112.00 90.87,111.10 92.27,110.00 C93.67,108.90 95.03,108.00 95.30,108.00 C95.56,108.00 96.08,109.59 96.44,111.54 L 97.11 115.09 L 111.41 114.50 ZM 142.95 90.26 C142.48,89.18 138.18,89.00 118.00,89.00 L 93.00 89.00 L 93.02 91.25 C93.04,92.49 93.50,95.48 94.06,97.90 C94.98,101.86 94.85,102.53 92.79,104.75 C91.53,106.11 89.60,107.56 88.50,107.98 C83.03,110.05 82.34,104.66 87.50,100.13 C89.43,98.44 91.00,96.60 91.00,96.03 C91.00,94.89 84.06,94.65 79.19,95.61 C79.94,95.27 80.77,94.74 81.44,94.15 C82.57,93.13 85.64,91.72 88.25,91.02 C90.86,90.32 93.00,89.35 93.00,88.87 C93.00,88.39 93.68,88.00 94.51,88.00 C96.40,88.00 102.46,82.32 101.08,81.85 C100.52,81.66 99.95,78.19 99.82,74.15 C99.60,67.91 99.85,66.59 101.46,65.41 C101.47,65.74 101.82,66.32 102.49,67.34 C103.87,69.45 103.87,70.12 102.45,74.09 C101.69,76.24 101.35,78.43 101.42,80.39 C101.51,82.53 102.08,84.39 103.13,85.65 C103.85,86.53 104.30,86.95 104.52,86.88 C106.59,88.15 109.00,86.98 109.00,84.28 C109.00,83.40 109.10,82.82 109.33,82.51 C109.53,82.55 109.76,82.57 110.00,82.57 C110.31,82.57 110.60,82.53 110.84,82.47 C111.18,82.55 111.45,82.52 111.64,82.43 C111.70,83.17 111.72,83.85 111.68,84.45 L 111.50 87.40 L 126.00 87.46 C138.93,87.51 143.20,87.83 142.95,90.26 ZM 93.53 127.05 C94.54,128.68 99.11,128.09 102.71,125.87 C106.65,123.44 108.20,120.33 106.81,117.67 C106.03,116.20 105.12,115.97 102.04,116.49 C98.60,117.08 98.02,116.84 96.05,114.07 C91.87,108.21 88.26,111.39 91.96,117.66 C93.35,120.02 93.92,122.19 93.54,123.71 C93.21,125.02 93.20,126.52 93.53,127.05 ZM 122.63 108.93 C119.04,106.10 119.31,104.22 123.43,103.45 C128.31,102.53 130.40,99.88 129.70,95.52 C129.21,92.51 129.41,92.00 131.06,92.00 C132.78,92.00 133.00,92.74 133.00,98.58 C133.00,104.51 132.72,105.44 130.08,108.08 C126.60,111.56 126.06,111.62 122.63,108.93 ZM 89.07 143.16 C91.72,140.51 93.07,139.74 93.42,140.66 C94.21,142.71 97.80,142.25 99.03,139.94 C99.91,138.29 100.43,138.11 101.56,139.05 C102.34,139.69 103.64,139.97 104.46,139.66 C105.27,139.34 106.20,139.52 106.53,140.04 C107.67,141.89 110.68,140.97 112.08,138.34 L 113.50 135.69 L 114.01 138.59 C114.38,140.76 115.15,141.59 117.01,141.83 C117.76,141.94 118.27,141.97 118.55,141.93 C118.52,141.98 118.48,142.03 118.45,142.09 C117.70,143.30 112.40,143.24 107.81,141.96 C104.80,141.13 102.96,141.33 97.88,143.04 C94.45,144.20 89.94,146.01 87.86,147.07 C83.46,149.32 81.44,149.45 78.00,147.70 C75.78,146.58 75.51,145.92 75.50,140.27 C75.68,141.34 75.96,142.35 76.34,143.28 C77.74,146.61 78.28,147.00 81.57,147.00 C84.49,147.00 86.02,146.22 89.07,143.16 ZM 97.04 97.07 C94.82,92.92 95.34,92.12 102.48,92.01 C96.41,92.17 95.00,93.72 99.25,95.79 C102.78,97.51 110.00,95.55 110.00,92.88 C110.00,92.41 107.25,92.02 103.83,92.00 C104.05,92.00 104.27,92.00 104.50,92.00 C113.42,92.00 113.61,92.12 112.37,96.75 C111.82,98.81 111.18,99.00 104.92,99.00 C99.17,99.00 97.90,98.69 97.04,97.07 ZM 104.33 83.92 C104.00,82.23 104.30,78.40 105.02,75.42 C105.11,75.04 105.19,74.67 105.26,74.30 C105.93,71.62 105.85,69.10 105.20,67.36 C104.69,65.87 103.77,65.00 102.50,65.00 C102.33,65.00 102.18,65.00 102.05,65.01 C103.01,64.43 104.11,64.00 104.73,64.00 C106.77,64.00 110.51,74.01 111.47,80.87 C111.33,80.73 111.16,80.60 110.96,80.47 C110.38,80.12 109.23,80.40 108.39,81.09 C108.04,81.38 107.79,81.55 107.65,81.58 C107.84,80.64 108.22,79.51 108.72,78.46 C110.27,75.21 110.27,74.84 108.75,73.32 C107.22,71.79 107.14,71.82 107.64,73.72 C107.93,74.85 107.44,77.19 106.53,78.93 C106.41,79.18 106.30,79.42 106.19,79.68 L 106.19 79.68 C105.49,81.39 105.24,83.30 105.56,84.74 C106.02,86.86 105.92,87.15 105.10,86.00 C104.86,85.67 104.66,85.27 104.51,84.83 C104.46,84.55 104.40,84.25 104.33,83.92 ZM 142.90 111.26 C142.08,111.21 141.10,111.50 140.46,112.03 C139.63,112.72 138.63,112.96 138.23,112.56 C137.83,112.16 137.35,107.37 137.16,101.92 L 136.81 92.00 L 139.91 92.00 C141.25,92.00 142.15,91.80 142.62,91.38 C142.27,92.14 141.68,93.05 140.91,94.13 C137.07,99.52 137.79,110.00 142.06,111.02 C142.38,111.09 142.66,111.17 142.90,111.26 ZM 109.00 137.45 C109.00,137.14 109.70,133.81 110.56,130.05 C111.73,124.88 112.59,123.08 114.06,122.70 C115.13,122.42 116.00,122.57 116.00,123.04 C116.00,125.01 110.69,138.00 109.88,138.00 C109.40,138.00 109.00,137.75 109.00,137.45 ZM 102.64 108.36 C101.58,100.66 101.74,99.82 104.21,100.18 C106.22,100.47 106.39,100.98 106.12,105.99 C105.96,109.00 105.61,111.82 105.35,112.24 C104.22,114.08 103.23,112.67 102.64,108.36 ZM 98.61 110.25 C96.66,100.38 96.67,100.00 98.89,100.00 C100.70,100.00 101.00,100.60 101.01,104.25 C101.02,106.59 101.30,109.51 101.63,110.75 C102.06,112.37 101.80,113.00 100.70,113.00 C99.82,113.00 98.93,111.82 98.61,110.25 ZM 107.01 108.83 C107.03,103.06 107.93,100.00 109.62,100.00 C111.98,100.00 110.70,111.94 108.25,112.75 C107.38,113.04 107.00,111.86 107.01,108.83 ZM 87.36 103.50 C88.10,105.42 90.40,105.43 91.99,103.51 C93.65,101.51 92.54,99.00 90.00,99.00 C87.73,99.00 86.46,101.16 87.36,103.50 ZM 129.25 120.33 C131.24,121.13 132.25,120.56 133.14,118.16 C134.04,115.71 132.23,114.31 129.50,115.36 C127.68,116.06 127.50,119.64 129.25,120.33 ZM 118.50 99.00 C118.88,99.61 119.93,99.97 120.84,99.79 C123.17,99.34 123.12,93.65 120.79,93.20 C118.92,92.84 117.27,97.02 118.50,99.00 ZM 124.00 106.57 C124.00,108.61 126.39,108.34 128.44,106.06 C130.11,104.22 129.88,102.00 128.01,102.00 C126.63,102.00 124.00,105.00 124.00,106.57 ZM 102.76 108.50 C103.02,109.88 103.60,111.00 104.06,111.00 C105.60,111.00 106.15,108.96 105.45,105.78 C104.83,102.97 104.62,102.80 103.52,104.31 C102.84,105.24 102.49,107.13 102.76,108.50 ZM 84.96 125.45 C86.37,127.15 88.00,126.64 88.00,124.50 C88.00,122.56 86.04,121.56 84.76,122.84 C83.99,123.61 84.05,124.36 84.96,125.45 ZM 142.34 140.00 C142.82,139.89 143.14,139.37 143.24,138.45 C143.27,138.59 143.34,138.74 143.43,138.89 C143.92,139.67 143.29,140.02 142.34,140.00 Z" fill="rgb(163,126,88)"/>
<path d="M 108.00 171.40 C92.95,168.63 85.64,165.22 74.93,155.94 C67.84,149.79 59.86,139.97 57.52,134.50 C55.40,129.54 53.06,113.00 53.07,103.00 C53.07,96.80 53.63,94.19 56.29,87.92 C58.05,83.75 60.63,79.02 62.01,77.42 C69.52,68.67 82.67,60.27 92.76,57.76 C95.37,57.11 104.70,56.56 113.50,56.54 C128.16,56.50 130.00,56.70 135.50,58.92 C145.51,62.96 150.93,67.32 159.04,77.86 C164.61,85.09 169.36,96.46 171.70,108.12 C173.06,114.88 173.09,116.85 171.96,122.24 C170.15,130.79 163.18,144.31 157.03,151.19 C150.39,158.62 139.85,166.49 133.17,169.02 C127.92,171.00 113.34,172.38 108.00,171.40 ZM 87.86 147.07 C89.94,146.01 94.45,144.20 97.88,143.04 C102.96,141.33 104.80,141.13 107.81,141.96 C112.40,143.24 117.70,143.30 118.45,142.09 C120.91,138.11 136.46,135.44 139.05,138.56 C140.46,140.26 144.46,140.56 143.43,138.89 C142.43,137.28 144.94,136.03 149.23,136.02 C153.33,136.00 154.87,134.37 156.94,127.84 C159.03,121.24 154.40,114.02 149.88,116.84 C148.86,117.48 147.09,118.00 145.94,118.00 C144.19,118.00 143.90,117.48 144.17,114.80 C144.45,112.10 144.11,111.50 142.06,111.02 C137.79,110.00 137.07,99.52 140.91,94.13 C145.20,88.11 143.91,87.53 126.00,87.46 L 111.50 87.40 L 111.68 84.45 C112.05,78.35 107.17,64.00 104.73,64.00 C103.99,64.00 102.52,64.63 101.47,65.40 C99.85,66.58 99.60,67.89 99.82,74.15 C99.95,78.19 100.52,81.66 101.08,81.85 C102.46,82.32 96.40,88.00 94.51,88.00 C93.68,88.00 93.00,88.39 93.00,88.87 C93.00,89.35 90.86,90.32 88.25,91.02 C85.64,91.72 82.57,93.13 81.44,94.15 C80.30,95.17 78.66,96.00 77.79,96.00 C75.29,96.00 75.00,98.47 77.08,101.89 C78.14,103.63 79.00,106.36 79.00,107.97 C79.00,109.57 79.45,111.16 80.00,111.50 C82.01,112.74 80.91,116.91 77.50,121.00 C74.81,124.22 74.00,126.10 74.00,129.09 C74.00,131.24 74.34,133.00 74.75,133.00 C75.16,133.00 75.50,136.02 75.50,139.72 C75.50,145.88 75.71,146.54 78.00,147.70 C81.44,149.45 83.46,149.32 87.86,147.07 ZM 81.99 139.49 C81.22,138.56 80.96,136.61 81.33,134.37 C82.03,130.05 82.25,129.77 84.30,130.56 C86.39,131.36 87.42,136.35 86.03,138.94 C84.72,141.39 83.69,141.53 81.99,139.49 ZM 93.53 127.05 C93.20,126.52 93.21,125.02 93.54,123.71 C93.92,122.19 93.35,120.02 91.96,117.66 C88.26,111.39 91.87,108.21 96.05,114.07 C98.02,116.84 98.60,117.08 102.04,116.49 C105.12,115.97 106.03,116.20 106.81,117.67 C108.20,120.33 106.65,123.44 102.71,125.87 C99.11,128.09 94.54,128.68 93.53,127.05 ZM 84.96 125.45 C84.05,124.36 83.99,123.61 84.76,122.84 C86.04,121.56 88.00,122.56 88.00,124.50 C88.00,126.64 86.37,127.15 84.96,125.45 ZM 129.25 120.33 C127.50,119.64 127.68,116.06 129.50,115.36 C132.23,114.31 134.04,115.71 133.14,118.16 C132.25,120.56 131.24,121.13 129.25,120.33 ZM 102.76 108.50 C102.49,107.13 102.84,105.24 103.52,104.31 C104.62,102.80 104.83,102.97 105.45,105.78 C106.15,108.96 105.60,111.00 104.06,111.00 C103.60,111.00 103.02,109.88 102.76,108.50 ZM 124.00 106.57 C124.00,105.00 126.63,102.00 128.01,102.00 C129.88,102.00 130.11,104.22 128.44,106.06 C126.39,108.34 124.00,108.61 124.00,106.57 ZM 87.36 103.50 C86.46,101.16 87.73,99.00 90.00,99.00 C92.54,99.00 93.65,101.51 91.99,103.51 C90.40,105.43 88.10,105.42 87.36,103.50 ZM 118.50 99.00 C117.27,97.02 118.92,92.84 120.79,93.20 C123.12,93.65 123.17,99.34 120.84,99.79 C119.93,99.97 118.88,99.61 118.50,99.00 ZM 99.25 95.79 C94.78,93.61 96.58,92.00 103.50,92.00 C107.07,92.00 110.00,92.39 110.00,92.88 C110.00,95.55 102.78,97.51 99.25,95.79 Z" fill="rgb(179,127,73)"/>
</g>
</svg>